<mxfile host="app.diagrams.net" agent="Mozilla/5.0 (Windows NT 10.0; Win64; x64) AppleWebKit/537.36 (KHTML, like Gecko) Chrome/129.0.0.0 Safari/537.36" version="24.7.17">
  <diagram name="Halaman-1" id="yxX3UAv6cbtMbimc5Gq8">
    <mxGraphModel grid="1" page="1" gridSize="10" guides="1" tooltips="1" connect="1" arrows="1" fold="1" pageScale="1" pageWidth="827" pageHeight="1169" math="0" shadow="0">
      <root>
        <mxCell id="0" />
        <mxCell id="1" parent="0" />
        <mxCell id="ajZv0H8uh5LPejFHkpyR-1" value="&lt;font style=&quot;font-size: 14px;&quot; face=&quot;Comic Sans MS&quot;&gt;Start&lt;/font&gt;" style="rounded=1;whiteSpace=wrap;html=1;" vertex="1" parent="1">
          <mxGeometry x="340" y="10" width="120" height="60" as="geometry" />
        </mxCell>
        <mxCell id="ajZv0H8uh5LPejFHkpyR-2" value="" style="endArrow=classic;html=1;rounded=0;" edge="1" parent="1">
          <mxGeometry width="50" height="50" relative="1" as="geometry">
            <mxPoint x="399.5" y="70" as="sourcePoint" />
            <mxPoint x="399.5" y="110" as="targetPoint" />
          </mxGeometry>
        </mxCell>
        <mxCell id="ajZv0H8uh5LPejFHkpyR-3" value="&lt;font face=&quot;Comic Sans MS&quot;&gt;Cetak tombol&amp;nbsp;&lt;/font&gt;&lt;div&gt;&lt;font face=&quot;Comic Sans MS&quot;&gt;Ya / Tidak&amp;nbsp;&lt;/font&gt;&lt;/div&gt;" style="rhombus;whiteSpace=wrap;html=1;" vertex="1" parent="1">
          <mxGeometry x="340" y="110" width="120" height="100" as="geometry" />
        </mxCell>
        <mxCell id="ajZv0H8uh5LPejFHkpyR-6" value="" style="endArrow=classic;html=1;rounded=0;" edge="1" parent="1">
          <mxGeometry width="50" height="50" relative="1" as="geometry">
            <mxPoint x="399.5" y="210" as="sourcePoint" />
            <mxPoint x="399.5" y="250" as="targetPoint" />
          </mxGeometry>
        </mxCell>
        <mxCell id="ajZv0H8uh5LPejFHkpyR-8" value="&lt;font face=&quot;Comic Sans MS&quot;&gt;&amp;nbsp; &amp;nbsp; &amp;nbsp;Set status menjadi&lt;/font&gt;&lt;div&gt;&lt;font face=&quot;Comic Sans MS&quot;&gt;sedang melakukan&amp;nbsp;&lt;/font&gt;&lt;/div&gt;&lt;div&gt;&lt;font face=&quot;Comic Sans MS&quot;&gt;count down&lt;/font&gt;&lt;/div&gt;" style="shape=parallelogram;html=1;strokeWidth=2;perimeter=parallelogramPerimeter;whiteSpace=wrap;rounded=1;arcSize=12;size=0.23;" vertex="1" parent="1">
          <mxGeometry x="320" y="250" width="160" height="60" as="geometry" />
        </mxCell>
        <mxCell id="ajZv0H8uh5LPejFHkpyR-9" value="" style="endArrow=classic;html=1;rounded=0;" edge="1" parent="1">
          <mxGeometry width="50" height="50" relative="1" as="geometry">
            <mxPoint x="399.5" y="310" as="sourcePoint" />
            <mxPoint x="399.5" y="350" as="targetPoint" />
          </mxGeometry>
        </mxCell>
        <mxCell id="ajZv0H8uh5LPejFHkpyR-10" value="&lt;font face=&quot;Comic Sans MS&quot;&gt;&amp;nbsp; &amp;nbsp; Angka pada seven segment ditampilkan sesuai dengan nilai&lt;/font&gt;&lt;div&gt;&lt;font face=&quot;Comic Sans MS&quot;&gt;yang ada&lt;/font&gt;&lt;/div&gt;" style="strokeWidth=2;html=1;shape=mxgraph.flowchart.display;whiteSpace=wrap;" vertex="1" parent="1">
          <mxGeometry x="330" y="350" width="140" height="80" as="geometry" />
        </mxCell>
        <mxCell id="ajZv0H8uh5LPejFHkpyR-11" value="" style="endArrow=classic;html=1;rounded=0;" edge="1" parent="1">
          <mxGeometry width="50" height="50" relative="1" as="geometry">
            <mxPoint x="399.5" y="430" as="sourcePoint" />
            <mxPoint x="399.5" y="470" as="targetPoint" />
          </mxGeometry>
        </mxCell>
        <mxCell id="ajZv0H8uh5LPejFHkpyR-12" value="&lt;font face=&quot;Comic Sans MS&quot;&gt;Nilai pada seven segment dikurangi 1&lt;/font&gt;" style="rounded=0;whiteSpace=wrap;html=1;" vertex="1" parent="1">
          <mxGeometry x="340" y="470" width="120" height="60" as="geometry" />
        </mxCell>
        <mxCell id="ajZv0H8uh5LPejFHkpyR-13" value="" style="endArrow=classic;html=1;rounded=0;" edge="1" parent="1">
          <mxGeometry width="50" height="50" relative="1" as="geometry">
            <mxPoint x="399.5" y="530" as="sourcePoint" />
            <mxPoint x="399.5" y="570" as="targetPoint" />
          </mxGeometry>
        </mxCell>
        <mxCell id="ajZv0H8uh5LPejFHkpyR-14" value="&lt;font face=&quot;Comic Sans MS&quot;&gt;Apakah&amp;nbsp;&lt;/font&gt;&lt;div&gt;&lt;font face=&quot;Comic Sans MS&quot;&gt;nilai &amp;lt;= 0?&lt;/font&gt;&lt;/div&gt;" style="rhombus;whiteSpace=wrap;html=1;" vertex="1" parent="1">
          <mxGeometry x="360" y="570" width="80" height="80" as="geometry" />
        </mxCell>
        <mxCell id="ajZv0H8uh5LPejFHkpyR-15" value="" style="endArrow=classic;html=1;rounded=0;" edge="1" parent="1">
          <mxGeometry width="50" height="50" relative="1" as="geometry">
            <mxPoint x="399.5" y="650" as="sourcePoint" />
            <mxPoint x="399.5" y="690" as="targetPoint" />
          </mxGeometry>
        </mxCell>
        <mxCell id="ajZv0H8uh5LPejFHkpyR-16" value="&lt;font face=&quot;Comic Sans MS&quot;&gt;Turn off&amp;nbsp;&lt;/font&gt;&lt;div&gt;&lt;font face=&quot;Comic Sans MS&quot;&gt;the light&lt;/font&gt;&lt;/div&gt;" style="shape=parallelogram;perimeter=parallelogramPerimeter;whiteSpace=wrap;html=1;fixedSize=1;" vertex="1" parent="1">
          <mxGeometry x="340" y="690" width="120" height="60" as="geometry" />
        </mxCell>
        <mxCell id="ajZv0H8uh5LPejFHkpyR-17" value="" style="endArrow=classic;html=1;rounded=0;" edge="1" parent="1">
          <mxGeometry width="50" height="50" relative="1" as="geometry">
            <mxPoint x="399.5" y="750" as="sourcePoint" />
            <mxPoint x="399.5" y="790" as="targetPoint" />
          </mxGeometry>
        </mxCell>
        <mxCell id="ajZv0H8uh5LPejFHkpyR-18" value="&lt;font face=&quot;Comic Sans MS&quot;&gt;End&lt;/font&gt;" style="rounded=1;whiteSpace=wrap;html=1;" vertex="1" parent="1">
          <mxGeometry x="340" y="790" width="120" height="60" as="geometry" />
        </mxCell>
      </root>
    </mxGraphModel>
  </diagram>
</mxfile>
